<?xml version="1.0" standalone="no"?>
<!DOCTYPE svg PUBLIC "-//W3C//DTD SVG 20010904//EN"
 "http://www.w3.org/TR/2001/REC-SVG-20010904/DTD/svg10.dtd">
<svg version="1.0" xmlns="http://www.w3.org/2000/svg"
 width="640.000000pt" height="640.000000pt" viewBox="0 0 640.000000 640.000000"
 preserveAspectRatio="xMidYMid meet">
<metadata>
Created by potrace 1.14, written by Peter Selinger 2001-2017
</metadata>
<g transform="translate(0.000000,640.000000) scale(0.100000,-0.100000)"
fill="#000000" stroke="none">
<path d="M3501 6118 c-1 -18 -6 -26 -17 -24 -9 1 -39 -3 -66 -11 -28 -7 -54
-10 -59 -8 -4 3 -11 -1 -16 -9 -4 -8 -27 -16 -50 -19 -23 -2 -49 -9 -57 -16
-7 -6 -18 -11 -22 -9 -14 3 -84 -22 -129 -47 -22 -12 -62 -30 -90 -40 -27 -10
-61 -26 -75 -35 -14 -10 -42 -23 -63 -29 -22 -8 -34 -17 -31 -23 4 -7 2 -8 -5
-4 -6 4 -18 0 -27 -8 -8 -9 -22 -16 -29 -16 -8 0 -35 -11 -61 -25 -36 -19 -62
-25 -110 -25 -52 0 -64 -3 -68 -18 -5 -14 -24 -21 -79 -31 -171 -29 -218 -39
-253 -58 -42 -22 -57 -45 -24 -36 17 5 11 -8 -29 -61 -28 -37 -51 -71 -51 -76
0 -5 -9 -12 -20 -15 -11 -3 -20 -13 -20 -21 0 -8 -6 -14 -14 -14 -18 0 -29
-27 -13 -34 7 -2 0 -5 -14 -5 -15 -1 -29 -7 -32 -13 -3 -7 -46 -65 -97 -128
-55 -67 -105 -142 -122 -180 -31 -70 -46 -100 -85 -169 -49 -86 -66 -172 -67
-336 0 -175 13 -268 56 -397 17 -51 32 -115 34 -142 2 -27 10 -54 18 -60 7 -6
16 -19 19 -28 5 -15 4 -16 -13 -5 -11 6 -20 17 -20 23 0 6 -15 11 -34 12 -34
1 -35 0 -50 -52 -27 -93 -18 -225 20 -290 17 -29 34 -10 34 39 0 24 7 56 14
72 8 15 17 36 20 46 4 13 12 16 33 11 31 -7 55 -24 34 -24 -7 0 -10 -4 -7 -9
9 -14 -4 -41 -19 -41 -30 0 -44 -57 -39 -161 4 -122 22 -166 77 -192 22 -11
37 -26 37 -36 0 -10 16 -35 36 -55 46 -47 62 -37 48 27 -6 24 -8 52 -4 62 3
10 2 35 -4 56 -8 30 -6 54 7 106 9 38 31 149 47 249 36 216 42 236 75 279 14
19 25 39 25 45 0 6 7 13 15 16 8 4 15 17 15 30 0 13 4 24 10 24 16 0 40 57 40
98 0 21 7 47 15 58 8 10 15 29 15 42 0 13 6 22 15 22 8 0 17 11 21 25 3 13 12
29 20 36 8 6 11 15 8 20 -3 5 2 9 10 9 9 0 16 9 16 20 0 12 10 24 24 30 13 5
54 36 90 68 36 33 93 81 127 108 34 27 75 61 90 77 16 15 34 27 41 27 8 0 24
7 36 16 36 25 120 46 177 43 41 -2 58 2 80 19 25 20 60 28 108 24 9 -1 17 3
17 8 0 6 12 10 27 10 45 0 133 24 133 36 0 6 18 19 40 30 22 10 40 22 40 26 0
4 7 5 15 2 17 -7 54 15 101 59 36 35 116 56 176 46 20 -3 43 -2 50 2 19 12 96
11 103 -2 4 -5 12 -8 18 -6 7 2 33 -5 59 -15 27 -10 72 -27 100 -38 29 -11 61
-20 70 -20 10 0 18 -3 18 -8 0 -4 19 -13 42 -20 24 -8 62 -26 84 -40 42 -27
94 -96 94 -124 0 -9 9 -44 21 -79 11 -35 22 -73 23 -85 2 -11 6 -26 10 -33 5
-7 10 -27 12 -44 5 -38 25 -108 34 -122 14 -20 30 -113 40 -230 11 -127 31
-255 40 -255 8 0 15 -185 13 -364 -2 -164 -15 -326 -35 -429 -9 -48 -9 -60 3
-67 11 -7 7 -23 -18 -82 -33 -79 -70 -187 -79 -230 -4 -21 0 -28 16 -33 11 -4
26 -21 34 -38 l13 -32 13 25 c7 14 28 38 46 53 23 20 34 37 34 56 0 15 5 32
12 39 14 14 -6 42 -32 42 -19 0 -30 -19 -30 -51 0 -10 -4 -19 -10 -19 -5 0
-10 -8 -10 -17 0 -14 -5 -12 -26 10 -24 27 -25 47 -1 47 7 0 13 10 14 23 7 77
16 97 49 116 19 11 35 28 36 38 0 10 1 25 2 33 1 9 15 17 38 21 20 3 44 12 53
19 28 23 54 91 64 170 6 41 13 87 17 102 6 27 -4 34 -38 29 -4 0 -12 8 -18 18
-7 14 -6 20 5 25 8 3 14 2 14 -2 -4 -22 3 -24 17 -4 13 19 14 28 4 53 -7 16
-9 33 -6 37 16 15 35 -33 41 -104 4 -41 11 -77 16 -80 17 -10 47 79 59 171 10
80 10 91 -5 101 -9 7 -18 19 -19 27 -1 8 -8 23 -16 33 -9 11 -10 15 -2 10 15
-9 15 -1 0 23 -9 15 -8 36 5 96 9 42 24 91 33 108 26 52 92 224 99 259 11 55
27 92 54 121 24 26 26 35 24 105 -1 42 2 105 8 140 10 56 9 67 -11 113 -23 55
-21 78 4 32 12 -23 15 -24 15 -8 0 11 -6 31 -14 45 -23 40 -17 46 15 15 17
-16 30 -35 30 -42 0 -7 6 -10 15 -7 12 5 8 18 -20 72 -18 37 -45 79 -60 95
-21 22 -23 27 -9 27 10 0 26 -7 36 -17 10 -9 21 -13 25 -9 4 3 -4 16 -16 27
-22 21 -46 67 -42 82 0 4 -8 3 -19 -3 -11 -6 -21 -8 -21 -5 -1 3 -3 8 -4 13
-2 4 -6 16 -10 28 -3 11 -27 30 -51 42 -50 25 -58 27 -49 12 9 -14 -7 -12 -28
5 -11 7 -24 12 -31 9 -7 -3 -22 6 -34 19 l-23 24 22 6 c13 4 29 1 36 -5 9 -7
13 -7 13 0 0 10 -56 56 -95 78 -14 8 -20 22 -20 47 0 19 -3 39 -7 43 -5 4 -8
36 -8 71 0 49 -7 81 -30 134 -27 64 -112 189 -128 189 -4 0 -46 38 -94 84 -63
61 -109 95 -163 121 -42 21 -89 50 -105 65 -32 30 -186 76 -219 65 -10 -3 -29
-1 -42 4 -56 22 -59 23 -140 34 -14 2 -30 6 -36 10 -6 4 -16 0 -23 -8 -11 -13
-8 -15 14 -15 15 0 25 -4 21 -9 -3 -6 -18 -9 -32 -8 -19 2 -29 9 -34 27 l-7
25 -1 -27z m1006 -660 c-3 -7 -5 -2 -5 12 0 14 2 19 5 13 2 -7 2 -19 0 -25z
m63 -244 c0 -21 -38 -17 -50 6 -6 11 -8 25 -5 30 8 13 55 -18 55 -36z m152
-287 c13 -12 32 -33 43 -47 l20 -25 -23 19 c-28 24 -42 13 -17 -14 10 -11 16
-23 13 -26 -3 -3 -22 15 -42 39 -52 63 -47 106 6 54z m158 -69 c0 -5 -16 3
-35 18 -19 14 -35 33 -35 42 0 11 11 5 35 -18 19 -19 35 -38 35 -42z m-40 -86
c7 -20 16 -41 21 -46 14 -15 11 -76 -3 -76 -21 0 -57 100 -51 137 6 40 18 35
33 -15z m-3095 -891 c3 -5 1 -12 -5 -16 -5 -3 -10 1 -10 9 0 18 6 21 15 7z"/>
<path d="M4670 5183 c0 -5 12 -13 26 -20 26 -12 26 -12 9 7 -18 20 -35 26 -35
13z"/>
<path d="M4740 5156 c0 -2 7 -9 15 -16 9 -7 15 -8 15 -2 0 5 -7 12 -15 16 -8
3 -15 4 -15 2z"/>
<path d="M4800 5102 c0 -8 43 -32 57 -32 3 0 -2 9 -12 20 -18 20 -45 27 -45
12z"/>
<path d="M2408 4207 c-21 -6 -38 -15 -38 -21 0 -6 -22 -21 -48 -33 -26 -12
-63 -31 -82 -41 -19 -11 -44 -23 -55 -27 -13 -5 -16 -9 -7 -12 8 -3 10 -9 4
-16 -6 -7 -13 -27 -17 -45 -6 -31 -5 -33 12 -24 12 7 25 7 34 1 7 -5 27 -9 42
-9 18 0 26 -4 21 -11 -3 -6 -15 -8 -26 -6 -11 3 -33 1 -49 -5 l-29 -10 22 -24
c26 -27 48 -31 48 -9 0 8 5 15 11 15 5 0 8 -4 5 -9 -3 -5 2 -12 12 -16 16 -6
16 -7 0 -16 -19 -11 -48 -64 -48 -89 0 -10 -12 -38 -26 -63 -32 -58 -23 -80
40 -96 25 -6 50 -19 55 -29 9 -15 12 -15 21 -2 8 13 10 13 10 -2 0 -10 5 -18
11 -18 8 0 8 -4 0 -14 -9 -11 -7 -15 13 -20 13 -3 31 -17 40 -31 11 -17 26
-25 46 -25 16 0 31 -4 34 -9 3 -5 31 -12 61 -16 30 -3 55 -11 55 -16 0 -12 37
-12 44 0 4 5 29 1 58 -10 50 -18 98 -17 98 3 0 5 6 8 13 6 6 -1 22 1 34 6 12
4 31 3 41 -3 13 -7 31 -7 58 1 21 7 43 11 48 9 5 -1 21 10 37 24 15 15 31 27
36 26 45 -4 59 31 49 127 -9 88 -9 145 -2 210 6 45 4 52 -11 53 -11 0 -13 3
-5 6 14 5 15 58 2 88 -6 14 -9 16 -10 5 -1 -8 -8 -1 -15 15 -8 17 -14 24 -15
18 0 -7 -17 3 -37 22 -20 19 -44 35 -53 36 -34 2 -99 17 -208 50 -34 10 -84
19 -111 19 -27 0 -51 5 -53 11 -5 14 -76 39 -108 38 -14 -1 -42 -6 -62 -12z
m-113 -207 c-3 -5 -15 -10 -26 -10 -11 0 -17 5 -14 10 3 6 15 10 26 10 11 0
17 -4 14 -10z m232 -150 c47 0 35 -12 -14 -16 -21 -1 -50 -5 -65 -9 -16 -4
-28 -3 -28 2 0 13 42 33 58 27 8 -2 30 -4 49 -4z m53 -116 c0 -9 -5 -14 -12
-12 -18 6 -21 28 -4 28 9 0 16 -7 16 -16z m-99 -3 c0 8 5 1 11 -16 6 -16 17
-38 26 -48 21 -24 8 -32 -29 -17 -49 21 -59 35 -46 64 9 18 15 22 24 14 9 -8
13 -7 14 3z m174 -1 c3 -5 2 -10 -4 -10 -5 0 -13 5 -16 10 -3 6 -2 10 4 10 5
0 13 -4 16 -10z m90 4 c20 -8 46 -57 37 -70 -7 -10 -87 -34 -113 -34 -7 0 -3
10 9 23 12 13 27 37 33 55 12 35 11 34 34 26z m75 -63 c-14 -27 -36 -40 -27
-17 4 10 7 22 7 27 0 5 7 9 15 9 12 0 14 -4 5 -19z m-410 -75 c6 -8 21 -17 33
-19 l22 -4 -22 -2 c-12 0 -28 5 -36 13 -8 8 -27 16 -43 19 l-29 4 31 2 c17 0
37 -5 44 -13z m123 -8 c4 -10 8 -9 16 2 9 13 11 13 11 -2 0 -13 8 -18 27 -18
41 0 22 -9 -30 -14 -26 -2 -50 0 -53 5 -3 5 -9 7 -14 4 -4 -3 -10 2 -13 9 -4
10 2 16 16 19 12 2 25 5 29 6 3 0 9 -5 11 -11z m192 2 c3 -5 2 -10 -4 -10 -5
0 -13 5 -16 10 -3 6 -2 10 4 10 5 0 13 -4 16 -10z"/>
<path d="M3780 4059 c-127 -20 -221 -41 -270 -61 -84 -35 -100 -43 -100 -50 0
-4 -6 -8 -14 -8 -17 0 -56 -63 -56 -91 0 -10 -4 -19 -9 -19 -18 0 -22 -34 -5
-47 14 -10 15 -21 9 -60 -19 -115 2 -245 42 -260 8 -3 18 -16 23 -29 12 -30
55 -52 127 -63 93 -15 154 -32 191 -53 24 -13 44 -17 64 -13 16 4 54 8 86 10
31 2 70 8 85 14 16 6 37 11 48 11 36 0 96 43 110 77 11 28 19 33 56 39 34 5
47 12 58 34 8 15 12 30 9 32 -2 3 2 11 11 18 8 7 15 17 15 22 0 6 11 19 25 30
20 15 25 28 25 64 0 37 -3 44 -20 44 -11 0 -20 5 -20 10 0 6 9 10 21 10 11 0
17 5 14 10 -4 6 -10 8 -15 5 -5 -3 -11 -1 -15 5 -3 5 2 10 13 10 28 0 33 10
17 34 -21 29 -19 33 18 29 30 -4 31 -3 13 11 -11 9 -23 16 -28 16 -4 0 -5 6
-2 14 14 37 -155 210 -186 191 -6 -3 -10 -2 -10 2 0 5 -8 9 -17 10 -10 1 -33
4 -52 7 -21 4 -38 2 -42 -5 -4 -8 -12 -8 -25 -1 -21 11 -124 11 -194 1z m510
-383 c0 -3 -4 -8 -10 -11 -5 -3 -10 -1 -10 4 0 6 5 11 10 11 6 0 10 -2 10 -4z
m-604 -32 c-3 -8 1 -31 9 -50 8 -19 11 -34 8 -34 -15 0 -89 24 -100 33 -18 13
-16 38 2 31 8 -4 15 -2 15 4 0 6 12 15 28 20 39 15 45 14 38 -4z m74 -9 c0 -8
-4 -15 -10 -15 -5 0 -10 7 -10 15 0 8 5 15 10 15 6 0 10 -7 10 -15z m80 -11
c0 -8 -4 -12 -10 -9 -5 3 -10 10 -10 16 0 5 5 9 10 9 6 0 10 -7 10 -16z m-257
-34 c-7 -8 -22 24 -16 34 4 5 10 1 13 -10 4 -10 6 -21 3 -24z m351 -7 c7 -18
-17 -43 -41 -43 -11 0 -10 7 4 30 20 34 28 37 37 13z"/>
<path d="M3451 3101 c-11 -7 -9 -10 8 -16 11 -3 21 -10 21 -15 0 -5 9 -12 20
-15 17 -5 20 -15 20 -70 0 -71 0 -71 -77 -73 -18 -1 -46 -11 -62 -23 -16 -12
-34 -18 -40 -15 -6 4 -18 0 -27 -8 -8 -9 -27 -18 -42 -21 -15 -3 -40 -10 -55
-15 -33 -10 -108 9 -138 36 -10 9 -25 14 -33 11 -10 -4 -13 -1 -9 9 5 14 -4
15 -149 18 -32 1 -57 31 -58 68 0 28 -21 50 -28 29 -8 -23 -68 -40 -148 -43
-33 -1 -40 -4 -37 -18 4 -15 -53 -70 -74 -70 -4 0 -26 -18 -47 -40 -22 -23
-52 -49 -68 -58 -19 -11 -27 -23 -24 -34 2 -10 1 -18 -4 -18 -10 0 -28 -49
-28 -75 0 -40 31 -135 44 -135 11 0 30 -54 22 -63 -7 -9 26 -37 44 -37 23 0
48 -23 48 -44 0 -9 7 -16 15 -16 9 0 12 -6 9 -15 -4 -8 -1 -15 5 -15 6 0 11
-6 11 -13 0 -18 43 -54 58 -49 7 2 12 10 12 18 0 8 7 14 15 14 22 0 30 -4 27
-14 -2 -5 4 -6 13 -3 17 7 45 -1 45 -13 0 -5 -8 -10 -17 -13 -10 -2 1 -4 24
-4 34 1 46 -4 63 -26 12 -15 28 -27 35 -27 8 0 19 -9 25 -20 6 -11 19 -20 29
-20 10 0 26 -9 35 -19 17 -19 17 -20 -3 -38 -12 -9 -21 -28 -21 -40 0 -26 3
-27 31 -13 16 9 19 7 19 -14 0 -20 -4 -24 -17 -20 -14 5 -15 4 -4 -4 7 -5 22
-7 33 -4 13 3 24 -1 30 -12 5 -9 14 -14 19 -10 6 3 16 -2 24 -12 10 -15 16
-16 28 -6 11 10 21 10 39 2 16 -8 36 -8 59 -3 28 8 37 6 49 -10 19 -23 70 -14
78 15 3 13 11 18 23 15 11 -3 22 0 27 6 17 27 106 54 117 36 5 -7 15 -3 29 10
12 12 26 18 29 14 4 -3 7 9 7 29 0 23 10 48 30 74 16 21 30 50 30 62 0 15 7
26 20 29 11 3 20 12 20 19 0 8 10 19 23 25 13 6 28 24 35 42 12 30 12 31 31
11 10 -10 17 -22 14 -26 -2 -4 -6 -33 -9 -64 -4 -41 -2 -59 8 -65 7 -4 9 -11
5 -16 -4 -4 -18 -1 -30 6 -15 10 -22 10 -25 2 -2 -6 -15 -11 -28 -11 -13 0
-24 -4 -24 -9 0 -15 23 -18 52 -7 22 8 31 7 42 -4 17 -19 10 -81 -9 -74 -7 3
-18 -9 -26 -27 -10 -25 -10 -34 -1 -37 21 -7 13 -29 -23 -61 -19 -17 -35 -38
-35 -47 0 -9 -9 -18 -20 -21 -10 -3 -26 -16 -35 -29 -8 -13 -20 -24 -26 -24
-6 0 -17 -6 -25 -14 -8 -8 -35 -18 -60 -22 -25 -3 -48 -13 -51 -21 -3 -8 -13
-11 -25 -7 -10 3 -26 0 -34 -7 -16 -13 -46 -20 -114 -24 -25 -2 -57 -6 -72
-10 -22 -6 -28 -4 -28 9 0 9 -4 16 -10 16 -5 0 -10 -4 -10 -9 0 -17 -35 -18
-54 -2 -15 13 -20 13 -23 3 -4 -9 -8 -10 -18 -2 -10 8 -17 6 -27 -9 -8 -12
-18 -18 -22 -13 -4 4 -11 7 -14 8 -4 0 -14 3 -22 6 -60 22 -90 26 -98 12 -7
-12 -13 -12 -41 2 -18 9 -43 14 -57 11 -16 -3 -24 0 -24 9 0 8 -6 11 -16 7 -9
-3 -20 0 -24 7 -4 7 -13 9 -19 6 -6 -4 -9 -12 -6 -17 4 -5 -1 -9 -9 -9 -9 0
-16 6 -16 13 0 11 -31 33 -93 65 -20 11 -29 25 -33 53 -4 22 -10 39 -15 39 -5
0 -9 9 -9 20 0 11 -7 20 -15 20 -9 0 -19 8 -22 18 -4 9 -15 26 -25 36 -10 11
-18 28 -18 38 0 22 -48 78 -67 78 -7 0 -13 -11 -13 -25 0 -16 -6 -25 -15 -25
-19 0 -19 24 0 44 8 8 15 19 15 25 0 6 5 11 12 11 9 0 9 3 0 12 -7 7 -12 22
-12 35 0 13 -4 23 -9 23 -5 0 -7 9 -4 20 6 24 -9 26 -31 5 -20 -21 -24 -19
-29 13 -4 25 -4 25 -6 -5 0 -18 4 -33 10 -33 6 0 9 -10 7 -22 -2 -13 -10 -23
-18 -23 -8 0 -16 -9 -18 -20 -2 -11 -8 -25 -13 -31 -5 -6 -2 -20 9 -35 9 -13
17 -30 19 -38 1 -8 8 -28 16 -45 55 -118 82 -172 88 -176 6 -4 20 -44 24 -70
4 -23 18 -50 26 -50 5 0 9 -10 10 -22 0 -13 3 -17 6 -10 7 19 31 14 38 -7 3
-11 24 -35 45 -54 22 -19 40 -40 40 -46 0 -6 7 -11 15 -11 8 0 15 -7 15 -15 0
-8 5 -15 10 -15 6 0 10 -6 10 -14 0 -8 14 -25 30 -38 17 -13 43 -35 57 -50 15
-16 37 -28 50 -28 13 0 22 -4 18 -9 -3 -6 10 -17 30 -27 19 -9 35 -20 35 -26
0 -5 9 -18 20 -30 11 -12 20 -25 20 -30 0 -13 -18 -9 -23 5 -2 6 -8 9 -12 5
-5 -5 10 -26 33 -49 46 -45 50 -54 26 -67 -37 -21 -2 -30 101 -27 59 2 107 0
110 -6 7 -11 45 -12 45 -1 0 16 42 34 53 23 6 -6 15 -11 19 -11 13 0 9 38 -4
43 -8 3 -5 6 5 6 10 1 31 8 46 16 32 16 47 9 29 -13 -10 -12 -8 -13 12 -10 14
1 29 8 33 13 6 6 10 6 14 -2 8 -20 33 -15 33 6 0 15 10 21 40 26 25 4 40 12
40 21 0 8 5 14 12 14 19 0 47 31 41 46 -5 13 7 18 35 15 6 -1 12 2 12 8 0 5
-6 12 -12 14 -7 3 -3 6 10 6 15 1 26 10 32 27 6 16 16 24 24 21 8 -3 24 6 36
20 12 14 28 22 36 19 8 -3 14 -1 14 4 0 6 5 10 10 10 6 0 10 -6 10 -12 0 -7
15 -20 33 -28 29 -13 32 -19 29 -52 -2 -22 2 -38 8 -38 5 0 10 -9 10 -20 0
-11 -3 -20 -7 -20 -5 0 -13 -11 -19 -24 -9 -20 -8 -27 7 -40 29 -24 23 -36
-13 -29 -31 6 -32 5 -16 -11 18 -17 14 -46 -6 -46 -12 0 -76 -83 -76 -99 0 -5
3 -11 8 -13 4 -1 -3 -14 -15 -27 -18 -19 -23 -21 -23 -8 0 30 -19 18 -22 -14
-2 -18 -11 -37 -22 -43 -32 -18 -210 -204 -236 -246 -3 -5 -31 -21 -63 -34
-56 -25 -57 -27 -57 -66 0 -41 21 -57 34 -25 9 25 29 17 24 -10 -3 -14 -1 -25
5 -25 32 0 91 28 124 58 21 19 54 41 75 49 24 10 64 46 118 109 45 52 85 94
89 94 15 0 160 150 202 209 48 68 140 225 165 281 9 19 26 58 39 85 28 63 75
241 75 286 0 19 4 49 9 67 9 30 7 34 -13 42 -13 5 -44 35 -69 67 -25 32 -63
75 -85 97 -38 37 -40 37 -47 16 -4 -12 -9 -20 -11 -17 -8 8 29 113 47 133 10
11 19 24 19 28 0 7 37 62 58 84 6 7 12 21 12 31 0 9 5 22 12 29 6 6 12 40 13
74 4 134 5 138 25 155 12 11 22 36 26 65 4 27 11 51 15 54 15 9 10 33 -11 54
-24 24 -30 25 -30 4 0 -8 -5 -12 -11 -9 -6 4 -8 13 -5 21 3 8 1 14 -4 14 -5 0
-7 7 -4 15 9 24 -24 68 -47 62 -10 -3 -19 -1 -19 4 0 17 -42 9 -47 -9 -4 -15
-16 -18 -74 -19 -39 0 -73 -3 -76 -7 -3 -3 -12 3 -20 14 -8 11 -18 20 -22 20
-5 0 -28 18 -52 40 -24 22 -40 40 -35 40 13 0 -41 70 -99 126 -99 97 -138 118
-174 95z m-708 -261 c20 -11 44 -20 52 -20 9 0 18 -12 22 -30 6 -31 23 -42 23
-15 0 19 14 19 29 1 7 -8 28 -17 49 -21 20 -4 42 -11 49 -17 7 -5 17 -7 23 -3
6 4 10 -4 10 -19 0 -21 5 -25 29 -24 38 1 90 -20 87 -35 -2 -7 -1 -9 1 -4 7
10 41 9 48 -3 3 -5 -1 -10 -9 -10 -21 0 -20 -24 0 -44 17 -18 44 -21 44 -6 0
6 8 10 18 10 9 0 26 7 36 15 11 8 35 15 53 15 31 0 33 -2 27 -27 -4 -16 -12
-31 -17 -35 -33 -21 -183 -20 -197 2 -5 9 -16 10 -36 5 -16 -5 -38 -8 -49 -7
-11 2 -96 9 -190 16 -164 13 -205 20 -205 36 0 4 -10 11 -22 17 l-23 10 23 7
c22 7 31 26 12 26 -25 0 0 120 33 158 25 27 32 27 80 2z m825 -72 c7 -7 12
-21 12 -31 0 -12 5 -17 14 -14 17 7 30 -43 15 -57 -5 -6 -9 1 -10 20 -1 16 -3
22 -6 11 -2 -9 2 -38 9 -65 13 -43 13 -49 -4 -66 -15 -16 -27 -18 -89 -13 -45
4 -78 12 -90 22 -10 10 -22 14 -27 11 -5 -3 -16 1 -23 10 -7 8 -8 14 -2 12 5
-2 22 12 37 30 15 17 32 30 37 26 5 -3 9 0 9 6 0 7 6 10 14 7 17 -7 33 11 33
33 0 21 33 70 47 70 7 0 17 -5 24 -12z m589 -165 c-3 -10 -5 -4 -5 12 0 17 2
24 5 18 2 -7 2 -21 0 -30z m-214 -81 c-3 -20 -13 -46 -23 -57 -9 -11 -20 -28
-23 -38 -4 -9 -15 -20 -24 -24 -24 -9 -33 -23 -33 -55 0 -41 -28 -36 -35 6 -5
26 -1 43 19 75 15 22 30 41 34 41 8 0 42 64 41 76 -1 11 23 22 37 17 8 -3 11
-17 7 -41z m-119 -16 c-3 -9 -10 -16 -15 -16 -6 0 -5 9 1 21 13 24 24 20 14
-5z m-1124 -12 c0 -8 7 -14 15 -14 8 0 15 7 15 15 0 23 63 19 85 -5 16 -18 20
-18 34 -6 21 19 67 10 86 -17 13 -18 15 -19 30 -3 10 9 25 15 34 12 9 -3 34
-8 56 -12 22 -4 46 -11 53 -17 8 -6 16 -6 25 1 17 14 88 21 115 11 12 -5 22
-15 22 -24 0 -22 9 -19 32 10 25 32 55 32 70 0 l11 -24 30 29 c17 17 36 30 43
30 17 0 22 -53 10 -92 -10 -31 -14 -33 -54 -33 -26 0 -46 -6 -51 -14 -6 -9
-26 -14 -58 -14 -26 0 -57 -6 -68 -13 -29 -20 -111 -18 -119 3 -6 15 -8 14
-20 -2 -10 -14 -20 -16 -42 -11 -16 4 -44 9 -62 10 -17 1 -42 12 -55 24 -13
12 -31 22 -40 22 -9 0 -26 9 -37 20 -14 14 -28 18 -43 15 -30 -8 -77 10 -77
30 0 8 -18 26 -40 40 -39 24 -46 35 -34 48 10 9 34 -4 34 -19z m1110 -29 c0
-8 -4 -15 -10 -15 -5 0 -10 7 -10 15 0 8 5 15 10 15 6 0 10 -7 10 -15z m287
-87 c-3 -8 -6 -5 -6 6 -1 11 2 17 5 13 3 -3 4 -12 1 -19z m-823 -139 c-32 -13
-50 -9 -24 5 14 7 29 10 34 8 5 -3 1 -9 -10 -13z m-364 -59 c0 -5 -7 -10 -15
-10 -8 0 -15 5 -15 10 0 6 7 10 15 10 8 0 15 -4 15 -10z m1037 -267 c-3 -10
-5 -2 -5 17 0 19 2 27 5 18 2 -10 2 -26 0 -35z m-1041 -408 c9 -8 30 -15 47
-16 18 0 26 -3 20 -6 -7 -2 -13 -12 -13 -21 0 -12 3 -13 12 -4 16 16 38 -3 38
-33 0 -28 -45 -40 -73 -20 -23 16 -57 70 -57 90 0 8 -6 12 -14 9 -8 -3 -17 -1
-21 5 -10 17 44 13 61 -4z m854 -50 c0 -8 -4 -15 -10 -15 -5 0 -10 7 -10 15 0
8 5 15 10 15 6 0 10 -7 10 -15z m-640 -285 c0 -5 -7 -10 -15 -10 -8 0 -15 5
-15 10 0 6 7 10 15 10 8 0 15 -4 15 -10z m610 -85 c0 -8 -7 -15 -15 -15 -26 0
-18 20 13 29 1 1 2 -6 2 -14z"/>
<path d="M4025 2880 c3 -5 11 -10 16 -10 6 0 7 5 4 10 -3 6 -11 10 -16 10 -6
0 -7 -4 -4 -10z"/>
<path d="M2180 2815 c0 -8 5 -15 10 -15 6 0 10 7 10 15 0 8 -4 15 -10 15 -5 0
-10 -7 -10 -15z"/>
<path d="M2270 2801 c0 -24 18 -37 31 -24 13 13 1 43 -17 43 -8 0 -14 -9 -14
-19z"/>
<path d="M2240 2760 c0 -19 3 -21 12 -12 9 9 9 15 0 24 -9 9 -12 7 -12 -12z"/>
<path d="M2160 2565 c0 -16 6 -25 15 -25 8 0 15 -7 15 -15 0 -17 18 -19 40 -4
10 7 11 12 3 15 -6 3 -23 16 -38 30 -32 30 -35 30 -35 -1z"/>
<path d="M2250 2465 c0 -8 -4 -15 -9 -15 -13 0 -23 -34 -15 -53 5 -15 7 -14
23 1 15 15 41 64 41 77 0 3 -9 5 -20 5 -11 0 -20 -7 -20 -15z"/>
<path d="M2496 2332 c-8 -13 11 -35 23 -28 16 10 14 36 -3 36 -8 0 -17 -4 -20
-8z"/>
<path d="M2127 2228 c-3 -9 3 -14 14 -14 11 0 18 5 16 10 -5 16 -24 18 -30 4z"/>
<path d="M2426 2214 c-8 -21 11 -44 35 -44 22 0 26 29 7 48 -17 17 -35 15 -42
-4z"/>
<path d="M2670 2181 c0 -6 5 -13 10 -16 6 -3 10 1 10 9 0 9 -4 16 -10 16 -5 0
-10 -4 -10 -9z"/>
<path d="M2808 2113 c7 -3 16 -2 19 1 4 3 -2 6 -13 5 -11 0 -14 -3 -6 -6z"/>
<path d="M2080 2065 c-95 -72 -90 -63 -97 -148 -3 -43 -10 -80 -14 -83 -5 -3
-9 -70 -9 -150 0 -139 1 -148 30 -216 17 -38 30 -75 30 -80 0 -6 14 -40 31
-77 48 -100 193 -260 317 -348 70 -51 250 -189 285 -220 15 -13 48 -37 72 -52
39 -25 95 -80 95 -94 0 -3 5 -18 12 -34 20 -50 5 -200 -28 -265 -17 -34 -11
-49 27 -72 17 -10 55 -38 85 -62 l53 -43 20 55 c18 47 45 131 70 214 4 14 21
34 38 46 22 14 28 25 23 35 -14 24 21 60 58 61 38 1 49 13 30 31 -8 9 -28 12
-51 9 -33 -4 -37 -7 -31 -26 6 -18 5 -19 -9 -8 -8 7 -47 16 -86 19 -68 6 -71
7 -71 32 -1 35 -105 131 -143 131 -9 0 -28 11 -43 25 -15 14 -31 25 -35 25 -5
0 -6 6 -3 13 6 16 -39 42 -55 33 -6 -4 -15 4 -21 20 -6 15 -13 24 -17 21 -3
-4 -17 3 -31 13 -13 11 -31 20 -38 20 -8 0 -14 5 -14 10 0 6 -7 10 -16 10 -8
0 -13 4 -10 8 3 5 -13 27 -34 50 -22 23 -40 45 -40 49 0 10 -136 142 -170 165
-23 15 -23 17 -5 18 18 0 17 2 -5 13 -30 15 -72 85 -66 109 2 10 0 20 -5 23
-4 3 -6 12 -3 20 3 7 -1 24 -9 37 -9 13 -17 48 -20 78 -2 30 -12 84 -21 119
-10 35 -14 76 -11 91 3 16 2 31 -3 34 -9 5 -7 84 3 166 5 42 -6 210 -14 209
-3 0 -26 -15 -51 -34z"/>
<path d="M2735 2010 c-3 -5 -1 -10 4 -10 6 0 11 5 11 10 0 6 -2 10 -4 10 -3 0
-8 -4 -11 -10z"/>
<path d="M3035 905 c-48 -28 -84 -33 -65 -10 14 17 0 21 -17 4 -9 -9 -8 -15 2
-25 15 -16 71 -19 79 -5 3 5 15 7 26 4 15 -4 19 -2 15 10 -4 8 1 17 9 20 19 8
21 27 4 26 -7 -1 -31 -12 -53 -24z"/>
<path d="M2511 718 c-19 -21 -41 -51 -48 -65 -7 -14 -24 -46 -37 -72 -22 -41
-46 -121 -46 -150 0 -6 14 -11 30 -11 17 0 30 -4 30 -10 0 -5 5 -10 11 -10 8
0 8 4 -1 15 -7 9 -9 27 -5 47 8 42 64 158 76 158 5 0 9 11 9 25 0 14 4 25 10
25 5 0 7 13 4 30 -4 19 -2 30 5 30 6 0 11 7 11 15 0 23 -12 17 -49 -27z"/>
<path d="M3627 673 c-12 -27 -27 -52 -74 -124 -26 -40 -31 -94 -8 -103 8 -3
15 -15 15 -26 0 -11 5 -20 10 -20 6 0 10 9 10 21 0 12 4 17 11 13 6 -4 9 -19
5 -36 -5 -24 0 -35 22 -57 15 -14 35 -37 45 -51 l18 -25 -4 52 c-3 41 -11 60
-36 89 -61 69 -59 89 26 207 30 41 31 46 17 66 -21 29 -43 26 -57 -6z"/>
<path d="M2307 354 c-11 -14 -17 -27 -15 -28 1 -2 20 -1 41 2 24 3 37 9 37 19
0 9 -6 13 -15 9 -9 -3 -15 0 -15 9 0 22 -13 18 -33 -11z"/>
<path d="M2560 297 c0 -2 14 -16 31 -33 16 -16 28 -22 24 -14 -5 13 -55 56
-55 47z"/>
<path d="M2877 118 c-36 -13 -30 -32 12 -36 23 -2 37 2 46 15 24 32 -2 42 -58
21z"/>
</g>
</svg>
